<svg width="52" height="12" viewBox="0 0 52 12" fill="none" xmlns="http://www.w3.org/2000/svg">
<path d="M1 5.25C0.585786 5.25 0.25 5.58579 0.25 6C0.25 6.41421 0.585786 6.75 1 6.75L1 5.25ZM51.5303 6.53033C51.8232 6.23744 51.8232 5.76256 51.5303 5.46967L46.7574 0.696699C46.4645 0.403806 45.9896 0.403806 45.6967 0.696699C45.4038 0.989593 45.4038 1.46447 45.6967 1.75736L49.9393 6L45.6967 10.2426C45.4038 10.5355 45.4038 11.0104 45.6967 11.3033C45.9896 11.5962 46.4645 11.5962 46.7574 11.3033L51.5303 6.53033ZM1 6.75L51 6.75V5.25L1 5.25L1 6.75Z" fill="#1A1B1E"/>
</svg>
