<svg width="12" height="126" viewBox="0 0 12 126" fill="none" xmlns="http://www.w3.org/2000/svg">
<path d="M5.25 125C5.25 125.414 5.58579 125.75 6 125.75C6.41421 125.75 6.75 125.414 6.75 125L5.25 125ZM6.53032 0.469673C6.23743 0.176773 5.76256 0.176773 5.46966 0.469673L0.696694 5.24264C0.403801 5.53554 0.403801 6.01041 0.696694 6.3033C0.989587 6.59619 1.46446 6.59619 1.75735 6.3033L5.99999 2.06066L10.2426 6.3033C10.5355 6.59619 11.0104 6.59619 11.3033 6.3033C11.5962 6.01041 11.5962 5.53554 11.3033 5.24264L6.53032 0.469673ZM6.75 125L6.74999 1L5.24999 1L5.25 125L6.75 125Z" fill="#323232"/>
</svg>
