<svg width="25" height="25" viewBox="0 0 25 25" fill="none" xmlns="http://www.w3.org/2000/svg">
<path fill-rule="evenodd" clip-rule="evenodd" d="M8.59375 12.5C8.59375 13.536 9.0053 14.5296 9.73786 15.2621C10.4704 15.9947 11.464 16.4062 12.5 16.4062C13.536 16.4062 14.5296 15.9947 15.2621 15.2621C15.9947 14.5296 16.4063 13.536 16.4063 12.5C16.4063 11.464 15.9947 10.4704 15.2621 9.73786C14.5296 9.0053 13.536 8.59375 12.5 8.59375C11.464 8.59375 10.4704 9.0053 9.73786 9.73786C9.0053 10.4704 8.59375 11.464 8.59375 12.5ZM12.5 14.8437C11.8784 14.8437 11.2823 14.5968 10.8427 14.1573C10.4032 13.7177 10.1563 13.1216 10.1563 12.5C10.1563 11.8784 10.4032 11.2823 10.8427 10.8427C11.2823 10.4032 11.8784 10.1562 12.5 10.1562C13.1216 10.1562 13.7177 10.4032 14.1573 10.8427C14.5968 11.2823 14.8438 11.8784 14.8438 12.5C14.8438 13.1216 14.5968 13.7177 14.1573 14.1573C13.7177 14.5968 13.1216 14.8437 12.5 14.8437Z" fill="#D0D1D8"/>
<path fill-rule="evenodd" clip-rule="evenodd" d="M4.50312 13.9104C4.06667 13.2813 3.90625 12.7885 3.90625 12.5C3.90625 12.2115 4.06667 11.7188 4.50312 11.0896C4.92604 10.4823 5.55312 9.82292 6.34687 9.21354C7.9375 7.99271 10.1177 7.03125 12.5 7.03125C14.8823 7.03125 17.0625 7.99271 18.6531 9.21354C19.4469 9.82292 20.074 10.4823 20.4969 11.0896C20.9333 11.7188 21.0938 12.2115 21.0938 12.5C21.0938 12.7885 20.9333 13.2813 20.4969 13.9104C20.074 14.5177 19.4469 15.1771 18.6531 15.7865C17.0625 17.0073 14.8823 17.9688 12.5 17.9688C10.1177 17.9688 7.9375 17.0073 6.34687 15.7865C5.55312 15.1771 4.92604 14.5177 4.50312 13.9104ZM5.39479 17.026C7.19792 18.4094 9.70417 19.5312 12.5 19.5312C15.2958 19.5312 17.8021 18.4094 19.6042 17.026C20.5073 16.3333 21.2531 15.5604 21.7802 14.801C22.2927 14.0625 22.6562 13.2531 22.6562 12.5C22.6562 11.7469 22.2917 10.9375 21.7802 10.199C21.2531 9.43958 20.5073 8.66771 19.6052 7.97396C17.8031 6.59063 15.2958 5.46875 12.5 5.46875C9.70417 5.46875 7.19792 6.59063 5.39583 7.97396C4.49271 8.66667 3.74688 9.43958 3.21979 10.199C2.70833 10.9375 2.34375 11.7469 2.34375 12.5C2.34375 13.2531 2.70833 14.0625 3.21979 14.801C3.74688 15.5604 4.49271 16.3323 5.39479 17.026Z" fill="#D0D1D8"/>
<path d="M21 20L4 4.99902" stroke="#D0D1D8" stroke-width="1.5" stroke-linecap="round"/>
</svg>
