<svg width="22" height="22" viewBox="0 0 22 22" fill="none" xmlns="http://www.w3.org/2000/svg">
<path d="M8.9846 17.7991C10.9357 17.7991 12.735 17.1741 14.2071 16.1326L19.7451 21.6181C20.0021 21.8727 20.3409 22 20.7031 22C21.4626 22 22 21.4214 22 20.6807C22 20.3335 21.8832 19.9979 21.6261 19.7549L16.1232 14.2925C17.2799 12.788 17.9692 10.9248 17.9692 8.89953C17.9692 4.00421 13.9267 0 8.9846 0C4.05417 0 0 3.99264 0 8.89953C0 13.7948 4.04249 17.7991 8.9846 17.7991ZM8.9846 15.878C5.12905 15.878 1.93946 12.7186 1.93946 8.89953C1.93946 5.08048 5.12905 1.92109 8.9846 1.92109C12.8401 1.92109 16.0297 5.08048 16.0297 8.89953C16.0297 12.7186 12.8401 15.878 8.9846 15.878Z" fill="#1A1B1E"/>
</svg>
