<svg width="25" height="25" viewBox="0 0 25 25" fill="none" xmlns="http://www.w3.org/2000/svg">
<path d="M21.3333 5.73333C21.3333 5.12667 21.3333 4.82333 21.2142 4.5915C21.1107 4.38774 20.9454 4.22201 20.7418 4.11808C20.51 4 20.2067 4 19.6 4H5.73333C5.12667 4 4.82333 4 4.5915 4.11808C4.38767 4.22194 4.22194 4.38767 4.11808 4.5915C4 4.82333 4 5.12667 4 5.73333V6.53175C4 6.79717 4 6.92933 4.03033 7.05392C4.05686 7.16483 4.10073 7.27086 4.16033 7.36808C4.22642 7.47642 4.32067 7.57067 4.507 7.75808L9.99192 13.2419C10.1793 13.4293 10.2736 13.5236 10.3397 13.6319C10.3993 13.7294 10.4437 13.8356 10.4697 13.9461C10.5 14.0696 10.5 14.2007 10.5 14.4596V19.6119C10.5 20.5403 10.5 21.0051 10.695 21.2846C10.7796 21.4055 10.888 21.5078 11.0136 21.5853C11.1391 21.6628 11.2792 21.7138 11.4252 21.7353C11.7621 21.7851 12.1781 21.5782 13.0079 21.1622L13.8746 20.7288C14.2234 20.5555 14.3968 20.4688 14.5235 20.3388C14.6359 20.224 14.7214 20.0856 14.7738 19.9337C14.8333 19.7625 14.8333 19.5675 14.8333 19.1786V14.4682C14.8333 14.2028 14.8333 14.0707 14.8637 13.9461C14.8902 13.8352 14.934 13.7291 14.9937 13.6319C15.0587 13.5236 15.1529 13.4304 15.3371 13.2463L15.3414 13.2419L20.8263 7.75808C21.0127 7.57067 21.1058 7.47642 21.173 7.36808C21.2327 7.27091 21.2766 7.16486 21.303 7.05392C21.3333 6.9315 21.3333 6.79933 21.3333 6.54042V5.73333Z" fill="#1A1B1E"/>
</svg>
