<svg width="30" height="30" viewBox="0 0 30 30" fill="none" xmlns="http://www.w3.org/2000/svg">
<path d="M28 15.5774C28 8.62919 22.4008 3 15.5 3C8.59453 3 3 8.62919 3 15.5774C3 21.8536 7.56953 27.0575 13.5469 28V19.2139H10.3727V15.5782H13.5469V12.8057C13.5469 9.65425 15.4102 7.91385 18.2664 7.91385C19.6344 7.91385 21.0664 8.1591 21.0664 8.1591V11.2539H19.4875C17.9375 11.2539 17.4531 12.2248 17.4531 13.2192V15.5774H20.9195L20.3625 19.2131H17.4531V27.9992C23.4258 27.0567 28 21.8528 28 15.5766V15.5774Z" fill="#1877F2"/>
</svg>
