<svg width="38" height="12" viewBox="0 0 38 12" fill="none" xmlns="http://www.w3.org/2000/svg">
<path d="M1 6.75C0.585786 6.75 0.25 6.41421 0.25 6C0.25 5.58579 0.585786 5.25 1 5.25L1 6.75ZM37.5303 5.46967C37.8232 5.76256 37.8232 6.23744 37.5303 6.53033L32.7574 11.3033C32.4645 11.5962 31.9896 11.5962 31.6967 11.3033C31.4038 11.0104 31.4038 10.5355 31.6967 10.2426L35.9393 6L31.6967 1.75736C31.4038 1.46447 31.4038 0.989593 31.6967 0.696699C31.9896 0.403806 32.4645 0.403806 32.7574 0.696699L37.5303 5.46967ZM1 5.25L37 5.25V6.75L1 6.75L1 5.25Z" fill="#1A1B1E"/>
</svg>
