<svg width="46" height="42" viewBox="0 0 46 42" fill="none" xmlns="http://www.w3.org/2000/svg">
<g clip-path="url(#clip0_1339_7499)">
<path d="M17 8C18.8652 11.5534 19.9842 15.4505 20.2884 19.4521L20.4 20.92L21.9218 21.0306C26.1227 21.3358 30.2245 22.4529 34 24.32C30.2245 26.1871 26.1227 27.3042 21.9218 27.6094L20.4 27.72L20.3341 28.6274C19.9987 33.2433 18.8709 37.7669 17 42C15.1291 37.7669 14.0013 33.2433 13.6659 28.6274L13.6 27.72L13.417 27.7054C8.78669 27.336 4.2513 26.1916 0 24.32C4.25129 22.4484 8.78669 21.304 13.417 20.9346L13.6 20.92L13.7116 19.4521C14.0158 15.4505 15.1348 11.5534 17 8Z" fill="#FFD569"/>
<path d="M36 0C37.0972 2.09022 37.7554 4.38267 37.9344 6.73655L38 7.6L38.8952 7.66503C41.3663 7.84456 43.7791 8.50169 46 9.6C43.7791 10.6983 41.3663 11.3554 38.8952 11.535L38 11.6L37.9612 12.1337C37.764 14.849 37.1005 17.51 36 20C34.8995 17.51 34.236 14.849 34.0388 12.1337L34 11.6L33.8924 11.5914C31.1686 11.3741 28.5008 10.7009 26 9.6C28.5008 8.49907 31.1686 7.82591 33.8924 7.60859L34 7.6L34.0656 6.73655C34.2446 4.38267 34.9028 2.09022 36 0Z" fill="#FFD569"/>
</g>
<defs>
<clipPath id="clip0_1339_7499">
<rect width="46" height="42" fill="white"/>
</clipPath>
</defs>
</svg>
