<svg width="20" height="20" viewBox="0 0 20 20" fill="none" xmlns="http://www.w3.org/2000/svg">
<path d="M7.5 6.66667H7.49167M9.58333 17.5H15C15.663 17.5 16.2989 17.2366 16.7678 16.7678C17.2366 16.2989 17.5 15.663 17.5 15V5C17.5 4.33696 17.2366 3.70107 16.7678 3.23223C16.2989 2.76339 15.663 2.5 15 2.5H5C4.33696 2.5 3.70107 2.76339 3.23223 3.23223C2.76339 3.70107 2.5 4.33696 2.5 5V10.4167" stroke="#1A1B1E" stroke-linecap="round" stroke-linejoin="round"/>
<path d="M17.5 13.3332L13.3333 9.16652C12.56 8.42236 11.6067 8.42236 10.8333 9.16652L7.5 12.4999" stroke="#1A1B1E" stroke-linecap="round" stroke-linejoin="round"/>
<path d="M8.33594 11.6669L7.5026 10.8335C6.94427 10.2969 6.29427 10.1469 5.68427 10.3835M6.66927 15.8335H1.66927M4.16927 13.3335V18.3335" stroke="#1A1B1E" stroke-linecap="round" stroke-linejoin="round"/>
</svg>
