<svg width="163" height="162" viewBox="0 0 163 162" fill="none" xmlns="http://www.w3.org/2000/svg">
<circle cx="81.5" cy="81" r="81" fill="#EAECEF"/>
<path d="M55.6641 111.125V107.833C55.6641 96.9259 64.5064 88.0835 75.4141 88.0835H88.5807C99.4883 88.0835 108.331 96.9259 108.331 107.833V111.125" stroke="white" stroke-width="5" stroke-linecap="round"/>
<path d="M81.9948 78.2083C74.723 78.2083 68.8281 72.3134 68.8281 65.0417C68.8281 57.7699 74.723 51.875 81.9948 51.875C89.2664 51.875 95.1615 57.7699 95.1615 65.0417C95.1615 72.3134 89.2664 78.2083 81.9948 78.2083Z" stroke="white" stroke-width="5" stroke-linecap="round"/>
<path d="M77.5 69V69C79.75 72 84.25 72 86.5 69V69" stroke="white" stroke-width="3" stroke-linecap="round"/>
<path d="M36.7109 32.8765V32.8765C39.792 36.2143 45.0652 36.2143 48.1462 32.8765V32.8765" stroke="#EDEFF3" stroke-width="3" stroke-linecap="round"/>
</svg>
