<svg width="297" height="487" viewBox="0 0 297 487" fill="none" xmlns="http://www.w3.org/2000/svg">
<path d="M205.584 147.221C196.035 151.052 185.804 152.89 175.519 152.622L171.746 152.524L171.067 156.377C169.194 167.011 165.275 177.181 159.529 186.324C155.751 176.208 153.971 165.455 154.288 154.661L154.403 150.751L152.106 150.347C140.421 148.288 129.178 144.232 118.869 138.357C130.153 134.689 141.984 132.992 153.844 133.34L156.176 133.409L156.261 132.946C158.41 121.233 162.511 109.964 168.393 99.6092C172.058 110.94 173.794 122.805 173.529 134.711L173.519 135.181L177.233 135.849C187.36 137.668 197.007 141.538 205.584 147.221Z" fill="#A1DCDC"/>
<path fill-rule="evenodd" clip-rule="evenodd" d="M296.334 377.93C286.908 406.529 265.472 429.934 236.638 443.074C207.524 456.341 173.251 458.055 141.36 447.84C109.468 437.624 82.57 416.316 66.5827 388.602C50.6182 360.927 46.8393 329.129 56.0712 300.184L296.562 377.218L296.334 377.93Z" fill="#FFDBDB"/>
<path fill-rule="evenodd" clip-rule="evenodd" d="M96.5335 292.527C99.7538 282.372 106.832 273.88 116.253 268.885C125.783 263.832 136.931 262.772 147.242 265.938C157.554 269.104 166.185 276.238 171.238 285.769C176.283 295.286 177.347 306.416 174.196 316.716L96.4375 292.839L96.5335 292.527Z" fill="#FF4B4B"/>
<mask id="path-4-inside-1_330_6819" fill="white">
<path fill-rule="evenodd" clip-rule="evenodd" d="M76.1882 97.0466L76.1338 96.8761L152.734 72.4692C155.955 82.616 155.019 93.6265 150.132 103.085C145.239 112.557 136.782 119.696 126.624 122.933C116.467 126.17 105.439 125.238 95.9673 120.343C86.5622 115.483 79.4566 107.11 76.1882 97.0466Z"/>
</mask>
<path d="M76.1882 97.0466L74.7589 97.502L74.7615 97.5099L76.1882 97.0466ZM76.1338 96.8761L75.6785 95.4469L74.2493 95.9023L74.7046 97.3315L76.1338 96.8761ZM152.734 72.4692L154.164 72.0155L153.71 70.5841L152.279 71.04L152.734 72.4692ZM150.132 103.085L151.465 103.773L150.132 103.085ZM95.9673 120.343L96.6559 119.011L95.9673 120.343ZM77.6174 96.5912L77.563 96.4207L74.7046 97.3315L74.7589 97.502L77.6174 96.5912ZM76.5892 98.3053L153.19 73.8984L152.279 71.04L75.6785 95.4469L76.5892 98.3053ZM151.305 72.923C154.405 82.6912 153.504 93.2908 148.8 102.396L151.465 103.773C156.534 93.9621 157.505 82.5408 154.164 72.0155L151.305 72.923ZM148.8 102.396C144.088 111.515 135.948 118.388 126.169 121.504L127.08 124.362C137.617 121.005 146.389 113.599 151.465 103.773L148.8 102.396ZM126.169 121.504C116.39 124.62 105.774 123.723 96.6559 119.011L95.2786 121.676C105.104 126.753 116.543 127.72 127.08 124.362L126.169 121.504ZM96.6559 119.011C87.6018 114.332 80.7613 106.271 77.6148 96.5832L74.7615 97.5099C78.1519 107.949 85.5226 116.634 95.2786 121.676L96.6559 119.011Z" fill="#323232" mask="url(#path-4-inside-1_330_6819)"/>
<circle cx="28.4375" cy="421" r="28" fill="white"/>
<circle cx="148.438" cy="13" r="13" fill="#FF4B4B"/>
<circle cx="111.938" cy="202.5" r="34.5" fill="white"/>
<rect x="209.664" y="170" width="171.629" height="56.9833" rx="28.4917" transform="rotate(66.4313 209.664 170)" fill="#323232"/>
<rect x="134.969" y="33" width="70.0659" height="26.5927" rx="13.2964" transform="rotate(9.81901 134.969 33)" fill="#FFD569"/>
</svg>
