<svg width="143" height="164" viewBox="0 0 143 164" fill="none" xmlns="http://www.w3.org/2000/svg">
<path fill-rule="evenodd" clip-rule="evenodd" d="M142.679 25.8192C143.586 17.2586 141.912 10.2319 137.298 5.61804C121.994 -9.68614 80.1427 7.3521 43.8208 43.674C7.49883 79.9959 -9.53941 121.847 5.76477 137.151C9.4077 140.794 14.5548 142.605 20.7734 142.759C18.1524 141.854 15.8741 140.478 14.0018 138.606C-0.657159 123.947 15.1164 84.4065 49.2329 50.2899C83.3495 16.1734 122.89 0.399854 137.549 15.0588C140.317 17.8266 141.999 21.4814 142.679 25.8192Z" fill="white"/>
<path fill-rule="evenodd" clip-rule="evenodd" d="M25.8192 20.9914C17.2586 20.0839 10.2319 21.7582 5.61803 26.3721C-9.68615 41.6763 7.3521 83.5275 43.674 119.849C79.9959 156.171 121.847 173.21 137.151 157.905C140.794 154.262 142.605 149.115 142.759 142.897C141.854 145.518 140.478 147.796 138.606 149.668C123.947 164.327 84.4065 148.554 50.2899 114.437C16.1734 80.3207 0.399848 40.7803 15.0588 26.1213C17.8266 23.3536 21.4814 21.6707 25.8192 20.9914Z" fill="white"/>
</svg>
