<svg width="322" height="322" viewBox="0 0 322 322" fill="none" xmlns="http://www.w3.org/2000/svg">
<path fill-rule="evenodd" clip-rule="evenodd" d="M194.986 192.256C265.073 121.797 307.281 50.5228 289.381 32.622C271.364 14.6054 199.281 57.4775 128.379 128.379C57.4774 199.281 14.6053 271.364 32.6219 289.381C50.5224 307.281 121.795 265.075 192.253 194.99C131.676 255.134 68.4492 289.318 50.5675 271.436C32.551 253.42 67.3886 189.371 128.38 128.381C189.37 67.3896 253.419 32.552 271.435 50.5686C289.317 68.4505 255.132 131.679 194.986 192.256Z" fill="white"/>
<path d="M151.961 7.50098H157.039L158.693 147.39C158.744 151.734 162.253 155.243 166.597 155.295L306 156.953V162.048L166.597 163.707C162.253 163.759 158.744 167.268 158.693 171.612L157.039 311.501H151.961L150.307 171.612C150.256 167.268 146.747 163.759 142.403 163.707L3 162.048V156.953L142.403 155.295C146.747 155.243 150.256 151.734 150.307 147.39L151.961 7.50098Z" fill="white"/>
</svg>
