<svg width="12" height="61" viewBox="0 0 12 61" fill="none" xmlns="http://www.w3.org/2000/svg">
<path d="M5.25 60C5.25 60.4142 5.58579 60.75 6 60.75C6.41421 60.75 6.75 60.4142 6.75 60L5.25 60ZM6.53033 0.469673C6.23743 0.176781 5.76256 0.176781 5.46967 0.469673L0.696697 5.24265C0.403803 5.53554 0.403803 6.01041 0.696697 6.30331C0.98959 6.5962 1.46446 6.5962 1.75736 6.30331L6 2.06067L10.2426 6.30331C10.5355 6.5962 11.0104 6.5962 11.3033 6.30331C11.5962 6.01041 11.5962 5.53554 11.3033 5.24265L6.53033 0.469673ZM6.75 60L6.75 1L5.25 1L5.25 60L6.75 60Z" fill="#323232"/>
</svg>
