<svg width="18" height="18" viewBox="0 0 18 18" fill="none" xmlns="http://www.w3.org/2000/svg">
<path d="M17.3333 1.73333C17.3333 1.12667 17.3333 0.823333 17.2142 0.5915C17.1107 0.387743 16.9454 0.222007 16.7418 0.118084C16.51 2.32458e-07 16.2067 0 15.6 0H1.73333C1.12667 0 0.823333 2.32458e-07 0.5915 0.118084C0.387667 0.221945 0.221945 0.387667 0.118084 0.5915C2.32458e-07 0.823333 0 1.12667 0 1.73333V2.53175C0 2.79717 -1.32833e-07 2.92933 0.0303332 3.05392C0.0568606 3.16483 0.100734 3.27086 0.160333 3.36808C0.226416 3.47642 0.320667 3.57067 0.507 3.75808L5.99192 9.24192C6.17933 9.42933 6.27358 9.52358 6.33967 9.63192C6.39925 9.72942 6.44367 9.83558 6.46967 9.94608C6.5 10.0696 6.5 10.2007 6.5 10.4596V15.6119C6.5 16.5403 6.5 17.0051 6.695 17.2846C6.7796 17.4055 6.88801 17.5078 7.01356 17.5853C7.13912 17.6628 7.27918 17.7138 7.42517 17.7353C7.76208 17.7851 8.17808 17.5782 9.00792 17.1622L9.87458 16.7288C10.2234 16.5555 10.3968 16.4688 10.5235 16.3388C10.6359 16.224 10.7214 16.0856 10.7738 15.9337C10.8333 15.7625 10.8333 15.5675 10.8333 15.1786V10.4682C10.8333 10.2028 10.8333 10.0707 10.8637 9.94608C10.8902 9.83516 10.934 9.72913 10.9937 9.63192C11.0587 9.52358 11.1529 9.43042 11.3371 9.24625L11.3414 9.24192L16.8263 3.75808C17.0127 3.57067 17.1058 3.47642 17.173 3.36808C17.2327 3.27091 17.2766 3.16486 17.303 3.05392C17.3333 2.9315 17.3333 2.79933 17.3333 2.54042V1.73333Z" fill="white"/>
</svg>
