<svg width="30" height="30" viewBox="0 0 30 30" fill="none" xmlns="http://www.w3.org/2000/svg">
<path d="M21.375 3H8.625C5.5184 3 3 5.5184 3 8.625V21.375C3 24.4816 5.5184 27 8.625 27H21.375C24.4816 27 27 24.4816 27 21.375V8.625C27 5.5184 24.4816 3 21.375 3Z" fill="url(#paint0_radial_1822_12166)"/>
<path d="M21.375 3H8.625C5.5184 3 3 5.5184 3 8.625V21.375C3 24.4816 5.5184 27 8.625 27H21.375C24.4816 27 27 24.4816 27 21.375V8.625C27 5.5184 24.4816 3 21.375 3Z" fill="url(#paint1_radial_1822_12166)"/>
<path d="M15.0008 6C12.5566 6 12.2498 6.01071 11.2898 6.05436C10.3317 6.09828 9.67767 6.24993 9.10545 6.4725C8.51343 6.70235 8.01132 7.00988 7.5111 7.51027C7.01043 8.01058 6.7029 8.51268 6.47232 9.10443C6.24912 9.67682 6.09729 10.3311 6.05418 11.2888C6.01125 12.2488 6 12.5557 6 15C6 17.4443 6.0108 17.7501 6.05436 18.71C6.09846 19.6682 6.25011 20.3222 6.4725 20.8944C6.70254 21.4864 7.01007 21.9885 7.51047 22.4887C8.0106 22.9894 8.51271 23.2976 9.10428 23.5275C9.67695 23.7501 10.3311 23.9017 11.289 23.9456C12.2491 23.9893 12.5556 24 14.9997 24C17.4442 24 17.75 23.9893 18.71 23.9456C19.6681 23.9017 20.3229 23.7501 20.8955 23.5275C21.4873 23.2976 21.9887 22.9894 22.4887 22.4887C22.9894 21.9885 23.2968 21.4864 23.5275 20.8947C23.7487 20.3222 23.9006 19.668 23.9456 18.7102C23.9888 17.7503 24 17.4443 24 15C24 12.5557 23.9888 12.249 23.9456 11.289C23.9006 10.3308 23.7487 9.67691 23.5275 9.1047C23.2968 8.51269 22.9894 8.01058 22.4887 7.51027C21.9881 7.0097 21.4875 6.70217 20.895 6.47259C20.3213 6.24993 19.6669 6.09819 18.7087 6.05436C17.7487 6.01071 17.4431 6 14.998 6H15.0008ZM14.1934 7.62187C14.4331 7.62151 14.7005 7.62187 15.0008 7.62187C17.4039 7.62187 17.6887 7.63051 18.6376 7.67362C19.5151 7.71376 19.9914 7.86037 20.3087 7.98358C20.7287 8.14666 21.0281 8.34169 21.3429 8.65677C21.6579 8.97177 21.8529 9.27174 22.0164 9.69176C22.1396 10.0086 22.2864 10.4848 22.3264 11.3623C22.3695 12.3111 22.3788 12.596 22.3788 14.9979C22.3788 17.3998 22.3695 17.6849 22.3264 18.6335C22.2862 19.511 22.1396 19.9873 22.0164 20.3042C21.8533 20.7242 21.6579 21.0233 21.3429 21.3381C21.0279 21.6531 20.7289 21.848 20.3087 22.0112C19.9918 22.1349 19.5151 22.2812 18.6376 22.3213C17.6888 22.3644 17.4039 22.3738 15.0008 22.3738C12.5976 22.3738 12.3128 22.3644 11.3641 22.3213C10.4866 22.2808 10.0103 22.1342 9.69279 22.011C9.27285 21.8479 8.97279 21.6529 8.65779 21.3379C8.34279 21.0229 8.14785 20.7237 7.98432 20.3035C7.86111 19.9866 7.71432 19.5103 7.67436 18.6328C7.63125 17.684 7.62261 17.3991 7.62261 14.9957C7.62261 12.5923 7.63125 12.3088 7.67436 11.3601C7.7145 10.4826 7.86111 10.0063 7.98432 9.68906C8.14749 9.26904 8.34279 8.96907 8.65788 8.65407C8.97288 8.33908 9.27285 8.14405 9.69288 7.98061C10.0101 7.85686 10.4866 7.71061 11.3641 7.67029C12.1943 7.63276 12.5161 7.62151 14.1934 7.61962V7.62187ZM19.805 9.11622C19.2088 9.11622 18.725 9.59951 18.725 10.1958C18.725 10.7921 19.2088 11.2758 19.805 11.2758C20.4013 11.2758 20.885 10.7921 20.885 10.1958C20.885 9.5996 20.4013 9.11586 19.805 9.11586V9.11622ZM15.0008 10.3781C12.4484 10.3781 10.379 12.4475 10.379 15C10.379 17.5525 12.4484 19.6209 15.0008 19.6209C17.5533 19.6209 19.622 17.5525 19.622 15C19.622 12.4476 17.5531 10.3781 15.0006 10.3781H15.0008ZM15.0008 12C16.6576 12 18.0009 13.343 18.0009 15C18.0009 16.6568 16.6576 18 15.0008 18C13.3439 18 12.0008 16.6568 12.0008 15C12.0008 13.343 13.3439 12 15.0008 12Z" fill="white"/>
<defs>
<radialGradient id="paint0_radial_1822_12166" cx="0" cy="0" r="1" gradientUnits="userSpaceOnUse" gradientTransform="translate(9.375 28.8485) rotate(-90) scale(23.7858 22.1227)">
<stop stop-color="#FFDD55"/>
<stop offset="0.1" stop-color="#FFDD55"/>
<stop offset="0.5" stop-color="#FF543E"/>
<stop offset="1" stop-color="#C837AB"/>
</radialGradient>
<radialGradient id="paint1_radial_1822_12166" cx="0" cy="0" r="1" gradientUnits="userSpaceOnUse" gradientTransform="translate(-1.02009 4.72884) rotate(78.681) scale(10.6324 43.827)">
<stop stop-color="#3771C8"/>
<stop offset="0.128" stop-color="#3771C8"/>
<stop offset="1" stop-color="#6600FF" stop-opacity="0"/>
</radialGradient>
</defs>
</svg>
