<svg width="30" height="30" viewBox="0 0 30 30" fill="none" xmlns="http://www.w3.org/2000/svg">
<path d="M15.1719 2C11.7248 2 8.41594 3.37048 5.98047 5.80758C3.54249 8.24564 2.17255 11.5521 2.17188 15C2.17187 18.4464 3.54297 21.7553 5.98047 24.1924C8.41594 26.6295 11.7248 28 15.1719 28C18.6189 28 21.9278 26.6295 24.3633 24.1924C26.8008 21.7553 28.1719 18.4464 28.1719 15C28.1719 11.5536 26.8008 8.24467 24.3633 5.80758C21.9278 3.37048 18.6189 2 15.1719 2Z" fill="url(#paint0_linear_1822_12177)"/>
<path d="M8.13416 15.166C11.893 13.4727 14.3988 12.3562 15.6518 11.8168C19.2333 10.2766 19.9766 10.0091 20.4621 10.0001C20.5688 9.99831 20.8065 10.0256 20.9616 10.1553C21.0906 10.2647 21.1268 10.4126 21.1449 10.5164C21.1611 10.6202 21.1832 10.8566 21.1651 11.0412C20.9717 13.1495 20.1317 18.2657 19.7047 20.6272C19.5254 21.6263 19.1689 21.9613 18.8244 21.9941C18.0751 22.0653 17.507 21.4824 16.7818 20.9909C15.6477 20.2216 15.0072 19.7428 13.9053 18.9922C12.6322 18.1247 13.4581 17.6478 14.1833 16.8687C14.3726 16.6647 17.6722 13.5616 17.7346 13.2802C17.7427 13.245 17.7507 13.1137 17.6742 13.0445C17.5997 12.9752 17.4889 12.9989 17.4083 13.0177C17.2935 13.0443 15.4826 14.2835 11.9695 16.7349C11.4558 17.1003 10.9905 17.2785 10.5715 17.2691C10.1123 17.2589 9.22595 16.9999 8.56725 16.7787C7.7615 16.5072 7.11892 16.3637 7.17532 15.9026C7.20353 15.6626 7.52381 15.417 8.13416 15.166Z" fill="white"/>
<defs>
<linearGradient id="paint0_linear_1822_12177" x1="1302.17" y1="2" x2="1302.17" y2="2602" gradientUnits="userSpaceOnUse">
<stop stop-color="#2AABEE"/>
<stop offset="1" stop-color="#229ED9"/>
</linearGradient>
</defs>
</svg>
