<svg width="32" height="30" viewBox="0 0 32 30" fill="none" xmlns="http://www.w3.org/2000/svg">
<path d="M10.1353 3.04851L11.5401 2.61851C12.8548 2.21601 14.2609 2.86726 14.8244 4.13976L15.9462 6.67476C16.4353 7.77851 16.164 9.07726 15.2757 9.88476L12.8066 12.1323C12.9592 13.4773 13.4301 14.801 14.2205 16.1035C14.9716 17.3637 15.9788 18.4667 17.1827 19.3473L20.1514 18.3973C21.2757 18.0385 22.5005 18.4523 23.1905 19.4235L24.7975 21.686C25.6009 22.816 25.4562 24.3735 24.4609 25.331L23.394 26.3573C22.3322 27.3785 20.8166 27.7498 19.4131 27.3298C16.1014 26.3398 13.057 23.401 10.2788 18.5135C7.49659 13.6185 6.51572 9.46351 7.33354 6.05351C7.67789 4.61851 8.74485 3.47476 10.1379 3.04851" fill="#00C662"/>
</svg>
