<svg width="25" height="25" viewBox="0 0 25 25" fill="none" xmlns="http://www.w3.org/2000/svg">
<path d="M10.9846 19.7991C12.9357 19.7991 14.735 19.1741 16.2071 18.1326L21.7451 23.6181C22.0021 23.8727 22.3409 24 22.7031 24C23.4626 24 24 23.4214 24 22.6807C24 22.3335 23.8832 21.9979 23.6261 21.7549L18.1232 16.2925C19.2799 14.788 19.9692 12.9248 19.9692 10.8995C19.9692 6.00421 15.9267 2 10.9846 2C6.05417 2 2 5.99264 2 10.8995C2 15.7948 6.04249 19.7991 10.9846 19.7991ZM10.9846 17.878C7.12905 17.878 3.93946 14.7186 3.93946 10.8995C3.93946 7.08048 7.12905 3.92109 10.9846 3.92109C14.8401 3.92109 18.0297 7.08048 18.0297 10.8995C18.0297 14.7186 14.8401 17.878 10.9846 17.878Z" fill="white"/>
</svg>
