<svg width="23" height="24" viewBox="0 0 23 24" fill="none" xmlns="http://www.w3.org/2000/svg">
<path d="M11.5 17.5737C13.149 19.174 15.1101 20.4174 17.2609 21.2262L17.989 21.5L17.9389 21.0899C17.6472 18.7043 17.0864 16.3594 16.267 14.1L16.3024 14.077C18.4237 12.6991 20.3415 11.0309 22 9.12105L21.5075 9.04459C19.1724 8.68203 16.8136 8.49296 14.4505 8.47895C13.8194 6.16891 12.8988 3.9479 11.7107 1.86872L11.5 1.5L11.2893 1.86872C10.1012 3.9479 9.18064 6.16891 8.5495 8.47895C6.18642 8.49296 3.82761 8.68203 1.49247 9.04459L1 9.12105C2.65849 11.0309 4.57631 12.6991 6.69757 14.077L6.733 14.1C5.91364 16.3594 5.35277 18.7043 5.06113 21.0899L5.011 21.5C7.32605 20.5047 9.49356 19.1964 11.4529 17.6118L11.5 17.5737Z" fill="#FFD569"/>
</svg>
